<?xml version="1.0" encoding="iso-8859-1"?>
<!-- Generator: Adobe Illustrator 19.0.0, SVG Export Plug-In . SVG Version: 6.00 Build 0)  -->
<svg version="1.1" id="Capa_1" xmlns="http://www.w3.org/2000/svg" xmlns:xlink="http://www.w3.org/1999/xlink" x="0px" y="0px"
	 viewBox="0 0 512.16 512.16" style="enable-background:new 0 0 512.16 512.16;" xml:space="preserve">
<path style="fill:#FFFFFF;" d="M372.908,508.16H94.38c-15.688,0-28.52-12.832-28.52-28.52V32.632c0-15.688,12.832-28.52,28.52-28.52
	h323.4c15.688,0,28.52,12.832,28.52,28.52v402.344"/>
<path style="fill:#CCCCCC;" d="M372.908,512.16H94.38c-17.928,0-32.52-14.592-32.52-32.52V32.632c0-17.928,14.592-32.52,32.52-32.52
	h323.4c17.928,0,32.52,14.592,32.52,32.52v402.336h-8V32.632c0-13.52-11-24.52-24.52-24.52H94.38c-13.52,0-24.52,11-24.52,24.52v447
	c0,13.52,11,24.52,24.52,24.52h278.528L372.908,512.16L372.908,512.16z"/>
<path d="M372.908,450.4v61.712l77.136-77.136h-61.712C379.852,434.976,372.908,441.912,372.908,450.4z"/>
<g style="opacity:0.5;">
	<rect x="86.756" y="46.776" style="fill:#999999;" width="4" height="418.64"/>
</g>
<g style="opacity:0.5;">
	<polygon style="fill:#999999;" points="425.42,264.072 421.42,264.072 421.42,36.68 403.3,36.68 403.3,0 407.3,0 407.3,32.68 
		425.42,32.68 	"/>
</g>
<g>
	<rect x="143.668" y="351.192" style="fill:#999999;" width="228.576" height="8"/>
	<rect x="143.668" y="391.8" style="fill:#999999;" width="228.576" height="8"/>
	<rect x="143.668" y="432.376" style="fill:#999999;" width="92.6" height="8"/>
</g>
<polygon points="180.788,295.096 172.788,295.096 172.788,246.472 209.132,210.128 214.788,215.784 180.788,249.784 "/>
<polygon points="343.124,295.096 335.124,295.096 335.124,249.784 301.124,215.784 306.788,210.128 343.124,246.472 "/>
<path d="M257.956,158.744L257.956,158.744c-12.944,0-23.536-10.592-23.536-23.536v-41.16c0-12.944,10.592-23.536,23.536-23.536l0,0
	c12.944,0,23.536,10.592,23.536,23.536v41.16C281.492,148.16,270.9,158.744,257.956,158.744z"/>
<polygon points="215.276,136.728 180.572,117.504 162.78,79.504 170.02,76.112 186.724,111.768 219.148,129.728 "/>
<polygon points="185.716,190.136 150.26,165.104 154.876,158.568 185.044,179.872 214.5,152.688 219.924,158.56 "/>
<polygon points="300.636,136.728 296.764,129.728 329.188,111.768 345.884,76.112 353.132,79.504 335.332,117.504 "/>
<polygon points="330.196,190.136 295.988,158.56 301.412,152.688 330.868,179.872 361.044,158.568 365.652,165.104 "/>
<polygon style="fill:#CFDCE5;" points="250.884,272.808 246.884,272.808 246.884,165.024 267.028,165.024 267.028,169.024 
	250.884,169.024 "/>
<path style="fill:#E50000;" d="M257.956,283.72L257.956,283.72c-27.96,0-50.832-22.872-50.832-50.832v-88.904
	c0-27.96,22.872-50.832,50.832-50.832l0,0c27.96,0,50.832,22.872,50.832,50.832v88.912
	C308.788,260.848,285.916,283.72,257.956,283.72z"/>
<path style="fill:#FF0000;" d="M207.124,173.304v-29.328c0-27.96,22.872-50.832,50.832-50.832l0,0
	c27.96,0,50.832,22.872,50.832,50.832v29.328H207.124z"/>
<rect x="261.867" y="71.31" transform="matrix(-0.7071 0.7071 -0.7071 -0.7071 529.1441 -68.5589)" width="33.808" height="8"/>
<rect x="233.133" y="58.436" transform="matrix(-0.7071 0.7071 -0.7071 -0.7071 458.0849 -39.0652)" width="8" height="33.808"/>
<g>
</g>
<g>
</g>
<g>
</g>
<g>
</g>
<g>
</g>
<g>
</g>
<g>
</g>
<g>
</g>
<g>
</g>
<g>
</g>
<g>
</g>
<g>
</g>
<g>
</g>
<g>
</g>
<g>
</g>
</svg>
