<svg height="512pt" viewBox="-6 0 512 512" width="512pt" xmlns="http://www.w3.org/2000/svg"><path d="m47.527344 395.589844c-4.902344.667968-9.769532-1.597656-12.308594-5.847656-22.367188-37.484376-35.21875-81.300782-35.21875-128.121094 0-138.28125 112.097656-250.378906 250.378906-250.378906 138.203125 0 251.652344 114.558593 250.367188 252.757812-.421875 45.597656-13.035156 88.28125-34.738282 124.953125-2.765624 4.667969-8.03125 7.28125-13.40625 6.550781-63.453124-8.613281-131.46875-13.292968-202.222656-13.292968-70.988281 0-139.21875 4.707031-202.851562 13.378906zm0 0" fill="#8ed0e1"/><path d="m126.722656 224.832031h-51.097656c-8.464844 0-15.328125-6.863281-15.328125-15.332031v-30.65625c0-8.46875 6.863281-15.332031 15.328125-15.332031h51.097656c8.464844 0 15.328125 6.863281 15.328125 15.332031v30.65625c0 8.46875-6.863281 15.332031-15.328125 15.332031zm0 0" fill="#f19b0b"/><path d="m126.722656 224.832031h-30.660156c-8.464844 0-15.328125-6.863281-15.328125-15.332031v-30.65625c0-8.46875 6.863281-15.332031 15.328125-15.332031h30.660156c8.464844 0 15.328125 6.863281 15.328125 15.332031v30.65625c0 8.46875-6.863281 15.332031-15.328125 15.332031zm0 0" fill="#fdb44c"/><path d="m178.84375 143.074219h-26.0625c-8.464844 0-15.328125-6.863281-15.328125-15.328125v-112.417969c0-8.464844 6.863281-15.328125 15.328125-15.328125h26.0625c8.464844 0 15.328125 6.863281 15.328125 15.328125v112.417969c0 8.464844-6.863281 15.328125-15.328125 15.328125zm0 0" fill="#aa695d"/><path d="m282.058594 204.390625h-63.359375c-8.464844 0-15.328125-6.863281-15.328125-15.328125v-61.316406c0-8.46875 6.863281-15.332032 15.328125-15.332032h63.359375c8.46875 0 15.332031 6.863282 15.332031 15.332032v61.316406c0 8.464844-6.863281 15.328125-15.332031 15.328125zm0 0" fill="#925b50"/><path d="m347.976562 143.074219h-170.15625c-8.464843 0-15.328124-6.863281-15.328124-15.328125v-112.417969c0-8.464844 6.863281-15.328125 15.328124-15.328125h170.15625c8.464844 0 15.328126 6.863281 15.328126 15.328125v112.417969c0 8.464844-6.863282 15.328125-15.328126 15.328125zm0 0" fill="#b77d72"/><path d="m450.683594 265.113281h-400.609375c-8.464844 0-15.328125-6.863281-15.328125-15.328125v-50.503906c0-8.464844 6.863281-15.328125 15.328125-15.328125h400.609375c8.464844 0 15.328125 6.863281 15.328125 15.328125v50.503906c0 8.46875-6.863281 15.328125-15.328125 15.328125zm0 0" fill="#d3d3d8"/><path d="m450.683594 265.113281h-364.839844c-8.464844 0-15.328125-6.863281-15.328125-15.328125v-50.503906c0-8.464844 6.863281-15.328125 15.328125-15.328125h364.839844c8.464844 0 15.328125 6.863281 15.328125 15.328125v50.503906c0 8.46875-6.863281 15.328125-15.328125 15.328125zm0 0" fill="#ececf1"/><path d="m208.140625 122.632812h-35.429687c-5.644532 0-10.21875-4.574218-10.21875-10.21875v-81.753906c0-5.644531 4.574218-10.222656 10.21875-10.222656h35.429687c5.640625 0 10.21875 4.578125 10.21875 10.222656v81.753906c0 5.644532-4.578125 10.21875-10.21875 10.21875zm0 0" fill="#fdc273"/><path d="m328.046875 122.632812h-124.675781c-5.644532 0-10.222656-4.574218-10.222656-10.21875v-81.753906c0-5.644531 4.578124-10.222656 10.222656-10.222656h124.675781c5.644531 0 10.21875 4.578125 10.21875 10.222656v81.753906c0 5.644532-4.574219 10.21875-10.21875 10.21875zm0 0" fill="#ffdf8e"/><path d="m209.5 51.097656c0 8.464844-6.863281 15.328125-15.328125 15.328125s-15.328125-6.863281-15.328125-15.328125 6.863281-15.328125 15.328125-15.328125 15.328125 6.863281 15.328125 15.328125zm40.878906-15.328125c-8.464844 0-15.328125 6.863281-15.328125 15.328125s6.863281 15.328125 15.328125 15.328125 15.328125-6.863281 15.328125-15.328125-6.863281-15.328125-15.328125-15.328125zm56.207032 30.65625c8.464843 0 15.332031-6.863281 15.332031-15.328125s-6.867188-15.328125-15.332031-15.328125c-8.464844 0-15.328126 6.863281-15.328126 15.328125s6.863282 15.328125 15.328126 15.328125zm-112.414063 10.222657c-8.464844 0-15.328125 6.863281-15.328125 15.328124 0 8.464844 6.863281 15.328126 15.328125 15.328126s15.328125-6.863282 15.328125-15.328126c0-8.464843-6.863281-15.328124-15.328125-15.328124zm56.207031 0c-8.464844 0-15.328125 6.863281-15.328125 15.328124 0 8.464844 6.863281 15.328126 15.328125 15.328126s15.328125-6.863282 15.328125-15.328126c0-8.464843-6.863281-15.328124-15.328125-15.328124zm56.207032 0c-8.464844 0-15.328126 6.863281-15.328126 15.328124 0 8.464844 6.863282 15.328126 15.328126 15.328126 8.464843 0 15.332031-6.863282 15.332031-15.328126 0-8.464843-6.867188-15.328124-15.332031-15.328124zm0 0" fill="#fff5f5"/><path d="m34.746094 245.269531h45.988281v200.480469c-17.957031-16.550781-33.480469-35.664062-45.988281-56.804688zm0 0" fill="#f19b0b"/><path d="m466.011719 388.941406c-31.28125 52.882813-81.449219 93.238282-141.226563 111.816406h-148.808594c-40.539062-12.597656-76.652343-35.226562-105.460937-64.972656v-190.515625h395.496094zm0 0" fill="#fdb44c"/><path d="m397.539062 281.039062v-10.21875c0-2.824218 2.289063-5.113281 5.113282-5.113281h40.875c2.824218 0 5.113281 2.289063 5.113281 5.113281v10.21875c0 2.820313-2.289063 5.109376-5.113281 5.109376h-40.875c-2.824219 0-5.113282-2.289063-5.113282-5.109376zm0 0" fill="#f19b0b"/><path d="m398.5625 375.058594c0 51.167968-25.933594 96.296875-65.375 122.925781-25.921875 9.082031-53.785156 14.015625-82.808594 14.015625-29.023437 0-56.886718-4.933594-82.808594-14.015625-39.441406-26.625-65.375-71.757813-65.375-122.925781 0-81.839844 66.34375-148.183594 148.183594-148.183594s148.183594 66.34375 148.183594 148.183594zm0 0" fill="#b77d72"/><path d="m360.324219 375.058594c0 60.71875-49.222657 109.941406-109.945313 109.941406-60.71875 0-109.941406-49.222656-109.941406-109.941406s49.222656-109.945313 109.941406-109.945313 109.945313 49.226563 109.945313 109.945313zm0 0" fill="#8ed0e1"/><path d="m360.324219 375.058594c0 20.550781-5.648438 39.785156-15.464844 56.238281-16.453125 9.816406-35.6875 15.464844-56.238281 15.464844-60.722656 0-109.945313-49.222657-109.945313-109.945313 0-20.550781 5.644531-39.785156 15.464844-56.238281 16.453125-9.816406 35.683594-15.464844 56.238281-15.464844 60.71875 0 109.945313 49.226563 109.945313 109.945313zm0 0" fill="#b0dde9"/><path d="m283.839844 305.269531c15.839844 0 28.679687 12.839844 28.679687 28.679688 0 15.839843-12.839843 28.683593-28.679687 28.683593s-28.679688-12.84375-28.679688-28.683593c0-15.839844 12.839844-28.679688 28.679688-28.679688zm0 0" fill="#ececf1"/></svg>